Coordinates
version=1
nRows=14
nColumns=36
inDegrees=yes

Units are S.I. units (second, meters, Newtons, ...)
If the header above contains a line with 'inDegrees', this indicates whether rotational values are in degrees (yes) or radians (no).

endheader
time	pelvis_tilt	pelvis_list	pelvis_rotation	pelvis_tx	pelvis_ty	pelvis_tz	hip_flexion_r	hip_adduction_r	hip_rotation_r	knee_angle_r	knee_angle_r_beta	ankle_angle_r	subtalar_angle_r	mtp_angle_r	hip_flexion_l	hip_adduction_l	hip_rotation_l	knee_angle_l	knee_angle_l_beta	ankle_angle_l	subtalar_angle_l	mtp_angle_l	lumbar_extension	lumbar_bending	lumbar_rotation	arm_flex_r	arm_add_r	arm_rot_r	elbow_flex_r	pro_sup_r	arm_flex_l	arm_add_l	arm_rot_l	elbow_flex_l	pro_sup_l
      2.67500000	    -12.76699670	      4.29975330	     -1.78878705	      0.32423775	      1.27136768	     -0.04438824	     11.78537399	    -10.93615632	    -11.60953005	      2.79528562	      0.04878694	    -42.31356297	      4.05314499	     -7.49999987	     13.41853310	     -2.47597392	     -3.03884992	      5.46569308	      0.09539434	    -44.24774017	      2.54247361	     -7.49999987	      4.66236104	     -4.23790275	     -4.84601260	     46.16297317	     -5.52797987	     32.01091096	     56.49867152	     69.56390041	     56.42674833	     -6.12950103	     70.96164600	     21.53533365	     54.04381712
      2.67916670	    -12.83155899	      4.54764122	     -1.75431694	      0.32392190	      1.27617263	     -0.04529223	     11.86789497	    -11.04598520	    -11.50089314	      2.76761037	      0.04830391	    -41.71916222	      4.27467772	     -7.49999987	     13.48834480	     -2.37900533	     -3.71511105	      4.92556975	      0.08596741	    -45.18580388	      2.58865423	     -7.49999987	      4.49764802	     -4.62056496	     -4.85675589	     45.38938878	     -5.50553977	     32.28552348	     56.47233586	     69.82550383	     55.62531496	     -5.67780927	     71.42354876	     21.67094885	     54.20146969
      2.68333330	    -12.84180423	      4.80431406	     -1.75260118	      0.32407233	      1.27969497	     -0.04467389	     11.86434868	    -11.20188123	    -11.58539446	      2.66573416	      0.04652584	    -40.99324036	      4.29718860	     -7.49999987	     13.47752918	     -2.11617269	     -4.24307071	      4.50225534	      0.07857918	    -45.60457102	      2.15280830	     -7.49999987	      4.35272426	     -5.15849080	     -4.36527420	     44.38156405	     -5.75439799	     31.81571894	     56.63005673	     72.84987852	     55.61517580	     -4.95466007	     75.03863992	     21.61830197	     55.96580224
      2.68750000	    -12.86266527	      4.86170465	     -1.70029544	      0.32382419	      1.28903959	     -0.04534878	     11.87526578	    -11.27596653	    -11.70757281	      2.49071727	      0.04347122	    -40.15266628	      3.95851750	     -7.49999987	     13.44865454	     -2.00495650	     -4.33504463	      4.24104614	      0.07402022	    -45.44166256	      1.75315503	     -7.49999987	      4.11037370	     -5.41914802	     -4.53595650	     43.37302882	     -5.65163642	     32.00861898	     56.57407228	     72.91223175	     54.87982996	     -4.71273361	     75.15081088	     21.91697215	     55.99097356
      2.69166670	    -12.72087254	      4.81553093	     -1.60294024	      0.32392227	      1.29160898	     -0.04476354	     11.73382256	    -11.30839724	    -11.67290418	      2.25145086	      0.03929523	    -39.72156176	      3.78088107	     -7.49999987	     13.38870610	     -2.01105866	     -4.27888318	      4.08017501	      0.07121249	    -45.73310574	      0.82538568	     -7.49999987	      3.72280154	     -5.47698875	     -4.45841298	     42.37141080	     -5.75610165	     31.65788447	     57.05151195	     72.24134258	     54.10870610	     -5.13337064	     74.61742883	     23.41054752	     56.38831627
      2.69583330	    -12.79919983	      4.73455531	     -1.32634075	      0.32378577	      1.29973949	     -0.04541840	     11.67237942	    -11.32068020	    -12.01531075	      1.72423325	      0.03009355	    -39.78393600	      3.59093136	     -7.49999987	     13.40686138	     -1.89633258	     -4.73010067	      3.66788456	      0.06401666	    -45.67631345	      0.59082020	     -7.49999987	      3.63150874	     -5.57117910	     -4.27932759	     41.29190093	     -6.24115633	     31.66969554	     57.06522873	     72.38107120	     53.12336010	     -5.24284945	     74.68968289	     23.61621614	     56.47793783
      2.70000000	    -12.69958691	      4.51546110	     -1.10984306	      0.32381469	      1.30155839	     -0.04595880	     11.50252845	    -11.09999598	    -12.16232133	      1.37053835	      0.02392041	    -40.11858167	      2.77134309	     -7.49999987	     13.28098058	     -2.06180506	     -5.04132270	      3.41624291	      0.05962469	    -44.80009510	      0.57352275	     -7.49999987	      3.05815593	     -5.29909406	     -3.81235321	     39.91074175	     -7.50609023	     31.19890221	     59.03425345	     71.41567235	     52.06757462	     -6.08479410	     73.02820606	     25.79375993	     57.32564314
      2.70416670	    -12.66664311	      4.27279826	     -1.04173061	      0.32360014	      1.30156634	     -0.04640639	     11.47874548	    -10.81596514	    -13.21226309	      1.30787747	      0.02282677	    -39.29178912	      2.00823518	     -7.49999987	     13.30485535	     -2.31618301	     -5.38005698	      3.33566592	      0.05821835	    -44.23432727	     -0.06173999	     -7.49999987	      2.53233478	     -5.08872018	     -3.40886361	     38.49653320	     -8.83238183	     30.09153160	     61.12971234	     78.78187340	     51.20196334	     -6.21195635	     70.18862863	     26.28787731	     63.90086386
      2.70833330	    -12.53501465	      4.15971249	     -1.04990019	      0.32382975	      1.30422527	     -0.04576490	     11.34289944	    -10.66476965	    -13.98201398	      1.21994696	      0.02129209	    -38.90221138	      1.71165342	     -7.49999987	     13.32322912	     -2.39869440	     -5.07998673	      3.55536990	      0.06205291	    -43.57531713	     -0.46436688	     -7.49999987	      1.79205796	     -5.00482339	     -3.25986997	     37.85491504	     -9.68445996	     30.65573096	     62.36367815	     75.98712563	     50.46160438	     -6.92681529	     68.67785488	     27.65154631	     63.45186857
      2.71250000	    -12.74629741	      3.99273645	     -0.78931524	      0.32346531	      1.30429661	     -0.04615552	     11.62602849	    -10.53245112	    -14.65602901	      1.07633573	      0.01878560	    -38.07481613	      2.09430561	     -7.49999987	     13.70280010	     -2.51838585	     -5.13781173	      3.55529914	      0.06205168	    -43.12796236	     -0.81429930	     -7.49999987	      1.62490590	     -4.93062718	     -3.16255674	     36.86141432	    -10.84119018	     30.86347147	     63.92336972	     77.68626985	     50.33617194	     -6.80633898	     69.29803045	     27.01125656	     65.91578547
      2.71666670	    -12.56436302	      4.06373242	     -0.93201619	      0.32374263	      1.30449165	     -0.04592740	     11.55262425	    -10.50822874	    -14.78320070	      1.04988680	      0.01832398	    -37.82450642	      2.07726325	     -7.49999987	     13.62563193	     -2.50151616	     -5.78570405	      3.69599059	      0.06450720	    -42.62594862	     -1.05268211	     -7.49999987	      1.18271208	     -5.11582051	     -3.34193852	     36.35446032	    -11.27134430	     32.30562546	     65.14662289	     75.65162711	     49.69352237	     -7.32440638	     68.22879789	     27.97683663	     65.15001934
      2.72083330	    -12.84259395	      3.98716573	     -1.06088927	      0.32366700	      1.30510085	     -0.04634984	     12.08453584	    -10.43378360	    -15.01115062	      0.89777305	      0.01566910	    -38.09257392	      2.12667738	     -7.49999987	     14.06355267	     -2.74562078	     -5.86174977	      3.59980288	      0.06282841	    -42.38922348	     -1.08249370	     -7.49999987	      1.32744275	     -5.19321482	     -3.56910932	     35.98196567	    -11.63723990	     33.22327870	     65.50746817	     78.00405266	     49.40682584	     -7.15553018	     68.81663802	     26.85030488	     66.60602249
      2.72500000	    -12.85116741	      4.09289299	     -1.43411769	      0.32393685	      1.30478582	     -0.04613350	     12.24966032	    -10.50867610	    -14.90940507	      0.81110265	      0.01415641	    -37.87989467	      2.55579158	     -7.49999987	     14.29181063	     -2.91070480	     -5.88124165	      3.61841669	      0.06315329	    -41.89370017	     -0.73958995	     -7.49999987	      1.24605249	     -5.36407183	     -3.59927240	     35.94966695	    -11.79509013	     34.07120737	     65.64635273	     80.33659273	     48.97035459	     -7.46220774	     68.91437454	     26.76045289	     67.98396231
      2.72916670	    -12.87647970	      4.13789681	     -1.53481532	      0.32389424	      1.30848427	     -0.04612820	     12.31074393	    -10.58661209	    -14.92169262	      0.79245798	      0.01383100	    -37.78814338	      2.91435494	     -7.49999987	     14.52275218	     -2.97933520	     -5.75317647	      3.61585251	      0.06310853	    -41.26757145	      0.17800435	     -7.49999987	      0.96897904	     -5.48170442	     -3.86700441	     35.75098890	    -11.99196223	     34.18862785	     65.31080179	     82.10566944	     48.50624862	     -7.50621247	     68.24665080	     26.23225171	     68.55996857
